<svg xmlns="http://www.w3.org/2000/svg" xmlns:xlink="http://www.w3.org/1999/xlink" width="300" zoomAndPan="magnify" viewBox="0 0 224.87999 74.999997" height="100" preserveAspectRatio="xMidYMid meet" version="1.0"><defs><g/><clipPath id="162dea1b24"><path d="M 120 32 L 224.761719 32 L 224.761719 49 L 120 49 Z M 120 32 " clip-rule="nonzero"/></clipPath></defs><g fill="#356ee8" fill-opacity="1"><g transform="translate(-0.647525, 48.059964)"><g><path d="M 17.375 -5.203125 L 10.328125 -14.265625 L 7.171875 0 L 1.15625 0 L 7.171875 -26.859375 L 17.375 -13.65625 L 27.578125 -26.859375 L 33.59375 0 L 27.578125 0 L 24.421875 -14.265625 Z M 17.375 -5.203125 "/></g></g></g><g fill="#FFFFFF" fill-opacity="1"><g transform="translate(52.483843, 48.153752)"><g/></g><g transform="translate(57.284414, 48.153752)"><g/></g><g transform="translate(62.084985, 48.153752)"><g/></g><g transform="translate(66.885556, 48.153752)"><g/></g><g transform="translate(71.686127, 48.153752)"><g/></g><g transform="translate(76.486698, 48.153752)"><g/></g><g transform="translate(81.287269, 48.153752)"><g/></g><g transform="translate(86.08784, 48.153752)"><g/></g><g transform="translate(90.888411, 48.153752)"><g/></g><g transform="translate(95.688982, 48.153752)"><g/></g><g transform="translate(100.489554, 48.153752)"><g/></g><g transform="translate(105.290125, 48.153752)"><g/></g><g transform="translate(110.090696, 48.153752)"><g/></g><g transform="translate(114.891267, 48.153752)"><g/></g></g><g clip-path="url(#162dea1b24)"><g fill="#FFFFFF" fill-opacity="1"><g transform="translate(119.691838, 48.153752)"><g><path d="M 2.4375 -14.875 L 16.015625 -14.875 L 16.015625 -11.953125 L 4.171875 -11.953125 L 4.171875 -2.921875 L 16.015625 -2.921875 L 16.015625 0 L 2.4375 0 C 1.945312 0 1.53125 -0.171875 1.1875 -0.515625 C 0.84375 -0.859375 0.671875 -1.273438 0.671875 -1.765625 L 0.671875 -13.109375 C 0.671875 -13.585938 0.84375 -14 1.1875 -14.34375 C 1.53125 -14.695312 1.945312 -14.875 2.4375 -14.875 Z M 2.4375 -14.875 "/></g></g><g transform="translate(136.388224, 48.153752)"><g><path d="M 14.265625 -14.875 C 14.742188 -14.875 15.15625 -14.695312 15.5 -14.34375 C 15.851562 -14 16.03125 -13.585938 16.03125 -13.109375 L 16.03125 -1.765625 C 16.03125 -1.273438 15.851562 -0.859375 15.5 -0.515625 C 15.15625 -0.171875 14.742188 0 14.265625 0 L 2.453125 0 C 1.960938 0 1.539062 -0.171875 1.1875 -0.515625 C 0.84375 -0.859375 0.671875 -1.273438 0.671875 -1.765625 L 0.671875 -13.109375 C 0.671875 -13.585938 0.84375 -14 1.1875 -14.34375 C 1.539062 -14.695312 1.960938 -14.875 2.453125 -14.875 Z M 12.53125 -11.953125 L 4.171875 -11.953125 L 4.171875 -2.921875 L 12.53125 -2.921875 Z M 12.53125 -11.953125 "/></g></g><g transform="translate(153.094212, 48.153752)"><g><path d="M 12.53125 -14.875 L 16.015625 -14.875 L 16.015625 -1.765625 C 16.015625 -1.273438 15.84375 -0.859375 15.5 -0.515625 C 15.15625 -0.171875 14.738281 0 14.25 0 L 2.4375 0 C 1.945312 0 1.53125 -0.171875 1.1875 -0.515625 C 0.84375 -0.859375 0.671875 -1.273438 0.671875 -1.765625 L 0.671875 -14.875 L 4.171875 -14.875 L 4.171875 -2.921875 L 12.53125 -2.921875 Z M 12.53125 -14.875 "/></g></g><g transform="translate(169.790597, 48.153752)"><g><path d="M 16.015625 -14.875 L 16.015625 -11.953125 L 10.09375 -11.953125 L 10.09375 0 L 6.59375 0 L 6.59375 -11.953125 L 0.671875 -11.953125 L 0.671875 -14.875 Z M 16.015625 -14.875 "/></g></g><g transform="translate(186.486983, 48.153752)"><g><path d="M 0.671875 0 L 0.671875 -14.875 L 4.171875 -14.875 L 4.171875 0 Z M 0.671875 0 "/></g></g><g transform="translate(191.325959, 48.153752)"><g><path d="M 4.171875 -8.515625 L 4.171875 0 L 0.671875 0 L 0.671875 -15.609375 L 12.53125 -6.359375 L 12.53125 -14.875 L 16.015625 -14.875 L 16.015625 0.71875 Z M 4.171875 -8.515625 "/></g></g><g transform="translate(208.022345, 48.153752)"><g><path d="M 2.4375 -14.875 L 15.140625 -14.875 L 15.140625 -11.953125 L 4.171875 -11.953125 L 4.171875 -2.921875 L 12.53125 -2.921875 L 12.53125 -5.984375 L 9.015625 -5.984375 L 9.015625 -8.90625 L 16.015625 -8.90625 L 16.015625 -1.765625 C 16.015625 -1.273438 15.835938 -0.859375 15.484375 -0.515625 C 15.140625 -0.171875 14.726562 0 14.25 0 L 2.4375 0 C 1.945312 0 1.53125 -0.171875 1.1875 -0.515625 C 0.84375 -0.859375 0.671875 -1.273438 0.671875 -1.765625 L 0.671875 -13.109375 C 0.671875 -13.585938 0.84375 -14 1.1875 -14.34375 C 1.53125 -14.695312 1.945312 -14.875 2.4375 -14.875 Z M 2.4375 -14.875 "/></g></g></g></g><g fill="#356ee8" fill-opacity="1"><g transform="translate(34.756742, 48.153752)"><g><path d="M 2.4375 -14.875 L 14.265625 -14.875 C 14.742188 -14.875 15.15625 -14.695312 15.5 -14.34375 C 15.851562 -14 16.03125 -13.585938 16.03125 -13.109375 L 16.03125 0 L 12.53125 0 L 12.53125 -4.515625 L 4.171875 -4.515625 L 4.171875 0 L 0.671875 0 L 0.671875 -13.109375 C 0.671875 -13.585938 0.84375 -14 1.1875 -14.34375 C 1.53125 -14.695312 1.945312 -14.875 2.4375 -14.875 Z M 12.53125 -7.4375 L 12.53125 -11.953125 L 4.171875 -11.953125 L 4.171875 -7.4375 Z M 12.53125 -7.4375 "/></g></g><g transform="translate(51.462729, 48.153752)"><g><path d="M 2.4375 -14.875 L 15.140625 -14.875 L 15.140625 -11.953125 L 4.171875 -11.953125 L 4.171875 -2.921875 L 12.53125 -2.921875 L 12.53125 -5.984375 L 9.015625 -5.984375 L 9.015625 -8.90625 L 16.015625 -8.90625 L 16.015625 -1.765625 C 16.015625 -1.273438 15.835938 -0.859375 15.484375 -0.515625 C 15.140625 -0.171875 14.726562 0 14.25 0 L 2.4375 0 C 1.945312 0 1.53125 -0.171875 1.1875 -0.515625 C 0.84375 -0.859375 0.671875 -1.273438 0.671875 -1.765625 L 0.671875 -13.109375 C 0.671875 -13.585938 0.84375 -14 1.1875 -14.34375 C 1.53125 -14.695312 1.945312 -14.875 2.4375 -14.875 Z M 2.4375 -14.875 "/></g></g><g transform="translate(68.159115, 48.153752)"><g><path d="M 0.671875 0 L 0.671875 -14.875 L 4.171875 -14.875 L 4.171875 0 Z M 0.671875 0 "/></g></g><g transform="translate(72.998091, 48.153752)"><g><path d="M 2.4375 -14.875 L 16.015625 -14.875 L 16.015625 -11.953125 L 4.171875 -11.953125 L 4.171875 -2.921875 L 16.015625 -2.921875 L 16.015625 0 L 2.4375 0 C 1.945312 0 1.53125 -0.171875 1.1875 -0.515625 C 0.84375 -0.859375 0.671875 -1.273438 0.671875 -1.765625 L 0.671875 -13.109375 C 0.671875 -13.585938 0.84375 -14 1.1875 -14.34375 C 1.53125 -14.695312 1.945312 -14.875 2.4375 -14.875 Z M 2.4375 -14.875 "/></g></g></g><g fill="#FFFFFF" fill-opacity="1"><g transform="translate(91.424421, 48.059964)"><g><path d="M 4.21875 -25.609375 L 26.078125 -25.609375 L 26.078125 -20.5625 L 7.1875 -20.5625 L 7.1875 -15.328125 L 24.546875 -15.328125 C 25.367188 -15.328125 26.078125 -15.023438 26.671875 -14.421875 C 27.273438 -13.816406 27.578125 -13.097656 27.578125 -12.265625 L 27.578125 -3.046875 C 27.578125 -2.203125 27.273438 -1.484375 26.671875 -0.890625 C 26.078125 -0.296875 25.367188 0 24.546875 0 L 1.15625 0 L 1.15625 -5.03125 L 21.5625 -5.03125 L 21.5625 -10.296875 L 4.21875 -10.296875 C 3.375 -10.296875 2.648438 -10.59375 2.046875 -11.1875 C 1.453125 -11.78125 1.15625 -12.492188 1.15625 -13.328125 L 1.15625 -22.5625 C 1.15625 -23.382812 1.453125 -24.097656 2.046875 -24.703125 C 2.648438 -25.304688 3.375 -25.609375 4.21875 -25.609375 Z M 4.21875 -25.609375 "/></g></g></g></svg>