<svg xmlns="http://www.w3.org/2000/svg" class="stroke-1 stroke-primary-heavy fill-[#666666] dark:stroke-none dark:fill-white scale-[1.2]" stroke="black" stroke-width="1" xmlns:xlink="http://www.w3.org/1999/xlink" width="300" zoomAndPan="magnify" viewBox="0 0 224.87999 74.999997" height="100" preserveAspectRatio="xMidYMid meet" version="1.0"><defs><g/><clipPath id="27b539f97f"><path d="M 123 32 L 224.761719 32 L 224.761719 49 L 123 49 Z M 123 32 " clip-rule="nonzero"/></clipPath></defs><g class="fill-primary-base dark:fill-primary-base" fill-opacity="1"><g transform="translate(-0.552825, 47.852022)"><g><path d="M 17.75 -5.3125 L 10.546875 -14.578125 L 7.328125 0 L 1.1875 0 L 7.328125 -27.421875 L 17.75 -13.953125 L 28.171875 -27.421875 L 34.3125 0 L 28.171875 0 L 24.953125 -14.578125 Z M 17.75 -5.3125 "/></g></g></g><g fill-opacity="1"><g transform="translate(54.017658, 47.947776)"><g/></g><g transform="translate(58.918989, 47.947776)"><g/></g><g transform="translate(63.82032, 47.947776)"><g/></g><g transform="translate(68.72165, 47.947776)"><g/></g><g transform="translate(73.622981, 47.947776)"><g/></g><g transform="translate(78.524311, 47.947776)"><g/></g><g transform="translate(83.425642, 47.947776)"><g/></g><g transform="translate(88.326973, 47.947776)"><g/></g><g transform="translate(93.228303, 47.947776)"><g/></g><g transform="translate(98.129634, 47.947776)"><g/></g><g transform="translate(103.030965, 47.947776)"><g/></g><g transform="translate(107.932295, 47.947776)"><g/></g><g transform="translate(112.833626, 47.947776)"><g/></g><g transform="translate(117.734956, 47.947776)"><g/></g></g><g clip-path="url(#27b539f97f)"><g fill-opacity="1"><g transform="translate(122.636286, 47.947776)"><g><path d="M 2.484375 -15.203125 L 16.359375 -15.203125 L 16.359375 -12.203125 L 4.265625 -12.203125 L 4.265625 -2.984375 L 16.359375 -2.984375 L 16.359375 0 L 2.484375 0 C 1.992188 0 1.570312 -0.175781 1.21875 -0.53125 C 0.863281 -0.882812 0.6875 -1.304688 0.6875 -1.796875 L 0.6875 -13.390625 C 0.6875 -13.878906 0.863281 -14.300781 1.21875 -14.65625 C 1.570312 -15.019531 1.992188 -15.203125 2.484375 -15.203125 Z M 2.484375 -15.203125 "/></g></g><g transform="translate(139.683113, 47.947776)"><g><path d="M 2.484375 -15.203125 L 14.5625 -15.203125 C 15.050781 -15.203125 15.472656 -15.019531 15.828125 -14.65625 C 16.191406 -14.300781 16.375 -13.878906 16.375 -13.390625 L 16.375 0 L 12.796875 0 L 12.796875 -4.625 L 4.265625 -4.625 L 4.265625 0 L 0.6875 0 L 0.6875 -13.390625 C 0.6875 -13.878906 0.863281 -14.300781 1.21875 -14.65625 C 1.570312 -15.019531 1.992188 -15.203125 2.484375 -15.203125 Z M 12.796875 -7.59375 L 12.796875 -12.203125 L 4.265625 -12.203125 L 4.265625 -7.59375 Z M 12.796875 -7.59375 "/></g></g><g transform="translate(156.739743, 47.947776)"><g><path d="M 4.25 -8.703125 L 4.25 0 L 0.6875 0 L 0.6875 -15.9375 L 12.796875 -6.484375 L 12.796875 -15.203125 L 16.359375 -15.203125 L 16.359375 0.734375 Z M 4.25 -8.703125 "/></g></g><g transform="translate(173.786571, 47.947776)"><g><path d="M 4.25 -8.703125 L 4.25 0 L 0.6875 0 L 0.6875 -15.9375 L 12.796875 -6.484375 L 12.796875 -15.203125 L 16.359375 -15.203125 L 16.359375 0.734375 Z M 4.25 -8.703125 "/></g></g><g transform="translate(190.833398, 47.947776)"><g><path d="M 12.796875 -6.109375 L 4.265625 -6.109375 L 4.265625 -2.984375 L 16.375 -2.984375 L 16.375 0 L 0.6875 0 L 0.6875 -15.203125 L 16.375 -15.203125 L 16.375 -12.203125 L 4.265625 -12.203125 L 4.265625 -9.09375 L 12.796875 -9.09375 Z M 12.796875 -6.109375 "/></g></g><g transform="translate(207.890029, 47.947776)"><g><path d="M 14.5625 -15.203125 C 15.050781 -15.203125 15.472656 -15.019531 15.828125 -14.65625 C 16.191406 -14.300781 16.375 -13.878906 16.375 -13.390625 L 16.375 -6.421875 C 16.375 -5.921875 16.191406 -5.492188 15.828125 -5.140625 C 15.472656 -4.796875 15.050781 -4.625 14.5625 -4.625 L 14.25 -4.625 L 17.046875 0 L 12.875 0 L 10.0625 -4.625 L 4.25 -4.625 L 4.25 0 L 0.6875 0 L 0.6875 -15.203125 Z M 12.796875 -7.59375 L 12.796875 -12.203125 L 4.25 -12.203125 L 4.25 -7.59375 Z M 12.796875 -7.59375 "/></g></g></g></g><g class="fill-primary-base dark:fill-primary-base" fill-opacity="1"><g transform="translate(35.594545, 47.947776)"><g><path d="M 2.484375 -15.203125 L 14.5625 -15.203125 C 15.050781 -15.203125 15.472656 -15.019531 15.828125 -14.65625 C 16.191406 -14.300781 16.375 -13.878906 16.375 -13.390625 L 16.375 0 L 12.796875 0 L 12.796875 -4.625 L 4.265625 -4.625 L 4.265625 0 L 0.6875 0 L 0.6875 -13.390625 C 0.6875 -13.878906 0.863281 -14.300781 1.21875 -14.65625 C 1.570312 -15.019531 1.992188 -15.203125 2.484375 -15.203125 Z M 12.796875 -7.59375 L 12.796875 -12.203125 L 4.265625 -12.203125 L 4.265625 -7.59375 Z M 12.796875 -7.59375 "/></g></g><g transform="translate(52.651176, 47.947776)"><g><path d="M 2.484375 -15.203125 L 15.46875 -15.203125 L 15.46875 -12.203125 L 4.25 -12.203125 L 4.25 -2.984375 L 12.796875 -2.984375 L 12.796875 -6.109375 L 9.21875 -6.109375 L 9.21875 -9.09375 L 16.359375 -9.09375 L 16.359375 -1.796875 C 16.359375 -1.304688 16.179688 -0.882812 15.828125 -0.53125 C 15.472656 -0.175781 15.050781 0 14.5625 0 L 2.484375 0 C 1.992188 0 1.570312 -0.175781 1.21875 -0.53125 C 0.863281 -0.882812 0.6875 -1.304688 0.6875 -1.796875 L 0.6875 -13.390625 C 0.6875 -13.878906 0.863281 -14.300781 1.21875 -14.65625 C 1.570312 -15.019531 1.992188 -15.203125 2.484375 -15.203125 Z M 2.484375 -15.203125 "/></g></g><g transform="translate(69.698003, 47.947776)"><g><path d="M 0.6875 0 L 0.6875 -15.203125 L 4.25 -15.203125 L 4.25 0 Z M 0.6875 0 "/></g></g><g transform="translate(74.638544, 47.947776)"><g><path d="M 2.484375 -15.203125 L 16.359375 -15.203125 L 16.359375 -12.203125 L 4.265625 -12.203125 L 4.265625 -2.984375 L 16.359375 -2.984375 L 16.359375 0 L 2.484375 0 C 1.992188 0 1.570312 -0.175781 1.21875 -0.53125 C 0.863281 -0.882812 0.6875 -1.304688 0.6875 -1.796875 L 0.6875 -13.390625 C 0.6875 -13.878906 0.863281 -14.300781 1.21875 -14.65625 C 1.570312 -15.019531 1.992188 -15.203125 2.484375 -15.203125 Z M 2.484375 -15.203125 "/></g></g></g><g fill-opacity="1"><g transform="translate(93.451636, 47.852022)"><g><path d="M 4.296875 -26.140625 L 26.640625 -26.140625 L 26.640625 -21 L 7.34375 -21 L 7.34375 -15.65625 L 25.0625 -15.65625 C 25.90625 -15.65625 26.632812 -15.34375 27.25 -14.71875 C 27.863281 -14.101562 28.171875 -13.375 28.171875 -12.53125 L 28.171875 -3.109375 C 28.171875 -2.253906 27.863281 -1.519531 27.25 -0.90625 C 26.632812 -0.300781 25.90625 0 25.0625 0 L 1.1875 0 L 1.1875 -5.140625 L 22.015625 -5.140625 L 22.015625 -10.515625 L 4.296875 -10.515625 C 3.441406 -10.515625 2.707031 -10.816406 2.09375 -11.421875 C 1.488281 -12.023438 1.1875 -12.753906 1.1875 -13.609375 L 1.1875 -23.046875 C 1.1875 -23.890625 1.488281 -24.613281 2.09375 -25.21875 C 2.707031 -25.832031 3.441406 -26.140625 4.296875 -26.140625 Z M 4.296875 -26.140625 "/></g></g></g></svg>